HIERARCHY
ROOT ui
{
	 OFFSET 0 0 0
	 CHANNELS 3 XPosition YPosition Z Position
	 EndSite
	 {
	 OFFSET 0 -1 0
	 }
}
ROOT li
{
	 OFFSET 0 0 0
	 CHANNELS 3 XPosition YPosition Z Position
	 EndSite
	 {
	 OFFSET 0 -1 0
	 }
}
ROOT ul
{
	 OFFSET 0 0 0
	 CHANNELS 3 XPosition YPosition Z Position
	 EndSite
	 {
	 OFFSET 0 -1 0
	 }
}
ROOT ll
{
	 OFFSET 0 0 0
	 CHANNELS 3 XPosition YPosition Z Position
	 EndSite
	 {
	 OFFSET 0 -1 0
	 }
}
ROOT tt
{
	 OFFSET 0 0 0
	 CHANNELS 3 XPosition YPosition Z Position
	 EndSite
	 {
	 OFFSET 0 -1 0
	 }
}
ROOT tb
{
	 OFFSET 0 0 0
	 CHANNELS 3 XPosition YPosition Z Position
	 EndSite
	 {
	 OFFSET 0 -1 0
	 }
}
ROOT td
{
	 OFFSET 0 0 0
	 CHANNELS 3 XPosition YPosition Z Position
	 EndSite
	 {
	 OFFSET 0 -1 0
	 }
}
ROOT v
{
	 OFFSET 0 0 0
	 CHANNELS 3 XPosition YPosition Z Position
	 EndSite
	 {
	 OFFSET 0 -1 0
	 }
}
ROOT bn
{
	 OFFSET 0 0 0
	 CHANNELS 3 XPosition YPosition Z Position
	 EndSite
	 {
	 OFFSET 0 -1 0
	 }
}
MOTION
Frames: 32
Frame Time: 0.002
2.9288101196289063E-4	0.002246372938156128	0		0.5277160034179688	-2.364433349609375	0		-1.096152099609375	0.07079116058349609	0		-0.6984829711914062	-2.611771240234375	0		1.41456396484375	-0.77709130859375	0		3.16824072265625	-0.24733323669433593	0		4.65531591796875	-0.13027058410644532	0		5.63786474609375	0.06416266632080078	0		-0.25842694091796875	5.89572119140625	0		
0.012619892120361327	-0.0029413468837738038	0		0.529087158203125	-2.362529296875	0		-1.1086929931640626	0.08082860565185547	0		-0.6991309204101562	-2.6118408203125	0		1.4139293212890625	-0.77717626953125	0		3.152610595703125	-0.24730032348632813	0		4.65468603515625	-0.13037913513183594	0		5.64164453125	0.05003384780883789	0		-0.26000424194335936	5.8966572265625	0		
0.011997793197631836	-0.0029940459728240968	0		0.5424550170898438	-2.3617080078125	0		-1.07031591796875	0.080444580078125	0		-0.6737218627929688	-2.606114990234375	0		1.41330126953125	-0.7772398071289063	0		3.185020263671875	-0.24366513061523437	0		4.65406298828125	-0.13046772766113282	0		5.6412001953125	0.049868701934814456	0		-0.26058071899414065	5.8966064453125	0		
-0.0055922441482543946	-8.793860077857971E-4	0		0.5148549194335937	-2.358510498046875	0		-1.07092333984375	0.08041978454589843	0		-0.6763773193359375	-2.60912548828125	0		1.4126868896484375	-0.7772848510742187	0		3.146437744140625	-0.24039309692382813	0		4.64851513671875	-0.12349577331542969	0		5.6307353515625	0.03783446502685547	0		-0.26114080810546875	5.8965751953125	0		
0.003740056037902832	-0.009983097076416016	0		0.523167236328125	-2.36760986328125	0		-1.1045538330078124	0.07570054626464844	0		-0.7030308227539063	-2.6139091796875	0		1.412091552734375	-0.7773135986328125	0		3.1467421875	-0.25244483947753904	0		4.6418642578125	-0.13049929809570313	0		5.63611328125	0.06355245590209961	0		-0.26068826293945313	5.8955517578125	0		
0.013262310028076173	-7.23470002412796E-5	0		0.49965264892578126	-2.3594150390625	0		-1.13412548828125	0.0749623794555664	0		-0.697566162109375	-2.60795703125	0		1.4175810546875	-0.7703800659179687	0		3.172305419921875	-0.23770161437988283	0		4.6453505859375	-0.12457644653320313	0		5.63570947265625	0.06346640014648437	0		-0.2602277526855469	5.8925439453125	0		
0.0038042080402374266	0.009019413948059081	0		0.5441190795898437	-2.356800048828125	0		-1.1065755615234374	0.08474044799804688	0		-0.7090560302734376	-2.599841552734375	0		1.4200718994140624	-0.7664055786132813	0		3.1597314453125	-0.24161111450195313	0		4.64987353515625	-0.11764820098876953	0		5.6353251953125	0.06340481185913086	0		-0.26168643188476565	5.895568359375	0		
0.009190930366516113	-0.003004776954650879	0		0.4965394287109375	-2.362364990234375	0		-1.073119140625	0.08048048400878906	0		-0.6396686401367188	-2.609420166015625	0		1.4055137939453124	-0.7712673950195312	0		3.144230712890625	-0.24047979736328126	0		4.64631201171875	-0.12363495635986328	0		5.63206396484375	0.05131938934326172	0		-0.26313336181640623	5.896607421875	0		
-0.008269648551940918	-8.142629861831665E-4	0		0.5120745849609375	-2.35846826171875	0		-1.112595703125	0.08087342834472656	0		-0.716140869140625	-2.60570654296875	0		1.4050283203125	-0.771238037109375	0		3.14375	-0.240465576171875	0		4.64583203125	-0.1236338119506836	0		5.63172119140625	0.05130806350708008	0		-0.263560791015625	5.8966513671875	0		
-0.0016587090492248535	0.006178135871887207	0		0.49355267333984376	-2.36426025390625	0		-1.101133544921875	0.07083181762695312	0		-0.6687112426757813	-2.617067626953125	0		1.407606689453125	-0.76722216796875	0		3.15424462890625	-0.24653411865234376	0		4.63931982421875	-0.1305656280517578	0		5.63429541015625	0.06337046813964843	0		-0.2629705810546875	5.89569873046875	0		
0.007839556217193604	-0.002844254970550537	0		0.4971557312011719	-2.359234130859375	0		-1.142474609375	0.0802653579711914	0		-0.704108642578125	-2.61168994140625	0		1.4132396240234375	-0.7602210083007812	0		3.136935302734375	-0.23334468078613282	0		4.6380107421875	-0.11752833557128907	0		5.6339931640625	0.06340864181518555	0		-0.2482509765625	5.9066337890625	0		
0.0015502630472183229	0.00928230094909668	0		0.5147874755859375	-2.35432177734375	0		-1.10387060546875	0.0800047378540039	0		-0.6764526977539063	-2.603857177734375	0		1.417786376953125	-0.7662003173828125	0		3.16241455078125	-0.24752037048339845	0		4.6476142578125	-0.11757435607910156	0		5.63371044921875	0.06347033309936523	0		-0.26370083618164064	5.89584228515625	0		
-0.005879817962646484	0.002425107002258301	0		0.512386962890625	-2.356226318359375	0		-1.1082740478515625	0.07612769317626954	0		-0.7158356323242188	-2.603428955078125	0		1.409439697265625	-0.7630576171875	0		3.175140380859375	-0.23657327270507814	0		4.6472451171875	-0.11752140045166015	0		5.63767529296875	0.049621936798095706	0		-0.22999147033691406	5.90062548828125	0		
-3.296419978141785E-4	-0.009543003082275391	0		0.5369862670898438	-2.361364501953125	0		-1.0755748291015625	0.08092671203613282	0		-0.6442570190429687	-2.610974853515625	0		1.4031448974609375	-0.7569278564453125	0		3.150813720703125	-0.2342936553955078	0		4.64384765625	-0.12343367767333985	0		5.6303037109375	0.051602161407470704	0		-0.26533990478515623	5.89701904296875	0		
-0.010569945335388183	-3.713200092315674E-4	0		0.49364987182617187	-2.361904052734375	0		-1.1429710693359374	0.07260540008544922	0		-0.7076112670898438	-2.613333251953125	0		1.41370703125	-0.76994580078125	0		3.1414404296875	-0.24014268493652344	0		4.63658056640625	-0.11730672454833985	0		5.63297119140625	0.06375806808471679	0		-0.26464529418945315	5.89609521484375	0		
0.0061160001754760746	-0.0024401729106903075	0		0.53227490234375	-2.37016796875	0		-1.099241943359375	0.07530191040039062	0		-0.7038798828125	-2.60928564453125	0		1.419470458984375	-0.7629224243164062	0		3.183159912109375	-0.23844157409667968	0		4.64122216796875	-0.12428380584716797	0		5.63565576171875	0.07591729736328125	0		-0.24885324096679687	5.90403564453125	0		
0.008871397972106933	6.088129878044128E-4	0		0.5250958862304688	-2.3590322265625	0		-1.0724256591796875	0.08514158630371094	0		-0.6671757202148437	-2.61153466796875	0		1.413259765625	-0.7557974853515625	0		3.138978271484375	-0.22798574829101562	0		4.6460126953125	-0.11726297760009766	0		5.63969775390625	0.06382556533813477	0		-0.2651808166503906	5.8962529296875	0		
-0.007356060981750488	0.0028182339668273927	0		0.5378547973632812	-2.358079345703125	0		-1.076706298828125	0.08124716186523437	0		-0.6823984985351562	-2.6083330078125	0		1.4109776611328124	-0.7597134399414063	0		3.1346884765625	-0.23288674926757813	0		4.64083740234375	-0.10915802001953125	0		5.62949365234375	0.052032970428466795	0		-0.26541729736328123	5.89632177734375	0		
0.005378531932830811	-0.002236614942550659	0		0.517552978515625	-2.36684375	0		-1.115925537109375	0.0816516342163086	0		-0.6826220092773437	-2.608272705078125	0		1.407729736328125	-0.7626287841796875	0		3.1404052734375	-0.239883056640625	0		4.6424931640625	-0.123120361328125	0		5.6264326171875	0.03834763717651367	0		-0.26563201904296874	5.8963818359375	0		
-0.0018794389963150025	-0.009125838279724121	0		0.51735498046875	-2.366795166015625	0		-1.1161219482421876	0.08170112609863281	0		-0.7088632202148437	-2.612994140625	0		1.41055908203125	-0.759607421875	0		3.17019873046875	-0.2411006622314453	0		4.635349609375	-0.11701296234130859	0		5.63209228515625	0.06425310516357421	0		-0.25072848510742185	5.9072978515625	0		
-0.004911070823669434	0.006936679840087891	0		0.4942528381347656	-2.35855615234375	0		-1.1393468017578126	0.07594117736816407	0		-0.7070193481445313	-2.610974853515625	0		1.412421142578125	-0.7555889282226562	0		3.15313232421875	-0.2289155578613281	0		4.6442998046875	-0.10305763244628906	0		5.63196923828125	0.06431355285644531	0		-0.26599581909179687	5.89646728515625	0		
0.007885993957519532	8.460440039634705E-4	0		0.521075439453125	-2.3617705078125	0		-1.1114091796875	0.08571783447265625	0		-0.7071692504882813	-2.610950927734375	0		1.412271484375	-0.7555654296875	0		3.172920166015625	-0.23606832885742188	0		4.63502734375	-0.11695465087890625	0		5.62764599609375	0.0817441177368164	0		-0.26614453125	5.8964912109375	0		
6.978489756584167E-4	-0.006082005977630615	0		0.5100018615722657	-2.355663818359375	0		-1.116571044921875	0.08177213287353516	0		-0.6363606567382812	-2.618566650390625	0		1.412144775390625	-0.7555555419921876	0		3.17279345703125	-0.23605865478515625	0		4.639970703125	-0.10898950958251953	0		5.63600146484375	0.05043865585327149	0		-0.26627069091796873	5.89650146484375	0		
-0.008327084541320801	0.0029922950267791746	0		0.5348518676757813	-2.360888671875	0		-1.1166756591796876	0.081767578125	0		-0.7223652954101563	-2.6068134765625	0		1.4100048828125	-0.7595426635742187	0		3.148707275390625	-0.2338522491455078	0		4.62986669921875	-0.10890665435791015	0		5.62880029296875	0.05231173324584961	0		-0.2663745422363281	5.89649658203125	0		
-0.0025163819789886474	-0.0090800199508667	0		0.4897433776855469	-2.363511962890625	0		-1.1048475341796875	0.07164253234863281	0		-0.6745479736328125	-2.618256103515625	0		1.40992138671875	-0.7595628662109375	0		3.133633544921875	-0.23274061584472655	0		4.63471240234375	-0.11697135162353516	0		5.62874072265625	0.05227516937255859	0		-0.26645645141601565	5.8964765625	0		
0.007509487152099609	7.964879870414734E-4	0		0.5306261596679688	-2.369908203125	0		-1.139872802734375	0.07591642761230469	0		-0.7075477905273437	-2.611	0		1.42390283203125	-0.754721923828125	0		3.17963134765625	-0.22618244934082032	0		4.630765625	-0.1039730453491211	0		5.63449072265625	0.0763086166381836	0		-0.26455178833007814	5.89242431640625	0		
0.007469045162200928	7.473350167274475E-4	0		0.5236820068359375	-2.358896240234375	0		-1.0619161376953126	0.07517995452880859	0		-0.63463623046875	-2.6166923828125	0		1.4148800048828125	-0.7526923828125	0		3.1656708984375	-0.2171098175048828	0		4.6437333984375	-0.10313877868652344	0		5.638697265625	0.06401858520507812	0		-0.266554443359375	5.89639306640625	0		
0.004422908782958985	-0.0022882020473480227	0		0.5455985717773437	-2.36615234375	0		-1.1118458251953125	0.08555886840820312	0		-0.7096278686523437	-2.613093017578125	0		1.41183349609375	-0.7557285766601562	0		3.137554931640625	-0.2279260559082031	0		4.63966064453125	-0.10916754150390626	0		5.63155078125	0.06405923461914062	0		-0.23252871704101563	5.90103076171875	0		
0.004421445846557617	-0.0023617959022521973	0		0.516588134765625	-2.366970458984375	0		-1.07192822265625	0.07613347625732422	0		-0.6506506958007813	-2.6156865234375	0		1.4118316650390625	-0.7558029174804688	0		3.1525439453125	-0.22913359069824218	0		4.6396591796875	-0.10924365234375	0		5.62865283203125	0.05187822723388672	0		-0.28166616821289064	5.88539013671875	0		
-0.012546768188476562	-2.952480018138886E-4	0		0.5165999145507812	-2.36705419921875	0		-1.144947021484375	0.07269491577148438	0		-0.7116366577148437	-2.615231201171875	0		1.4118446044921875	-0.75588720703125	0		3.152557373046875	-0.2292191162109375	0		4.62272607421875	-0.10318052673339843	0		5.63155908203125	0.06377585983276367	0		-0.2665521240234375	5.89617431640625	0		
0.0074861769676208495	4.374389946460724E-4	0		0.5206665649414063	-2.362180908203125	0		-1.10685302734375	0.08026963043212891	0		-0.6726245727539063	-2.61666552734375	0		1.4179302978515624	-0.7490325927734375	0		3.165687255859375	-0.21742811584472657	0		4.63375048828125	-0.10337281036376954	0		5.63157666015625	0.06360958099365234	0		-0.2665216064453125	5.89608349609375	0		
-0.005427146911621094	0.006455658912658691	0		0.5206968994140625	-2.36227783203125	0		-1.100864013671875	0.07512202453613281	0		-0.7095665893554688	-2.6134345703125	0		1.417962646484375	-0.7491305541992187	0		3.171658447265625	-0.22458085632324218	0		4.6227841796875	-0.10337763977050782	0		5.63160009765625	0.06343147277832031	0		-0.266481201171875	5.89598779296875	0		
